<svg width="30" height="30" viewBox="0 0 30 30" fill="none" xmlns="http://www.w3.org/2000/svg">
<path d="M3.4375 12.7625H7.6125V15.575C7.6125 15.9629 7.76658 16.3349 8.04086 16.6092C8.31513 16.8834 8.68712 17.0375 9.075 17.0375H12C12.3879 17.0375 12.7599 16.8834 13.0341 16.6092C13.3084 16.3349 13.4625 15.9629 13.4625 15.575V12.7625H26.5625C26.5625 15.8125 26.5625 18.3 24.7625 20.0875C24.6426 20.2032 24.5029 20.2964 24.35 20.3625C23.5511 20.6923 22.7093 20.907 21.85 21C17.2843 21.5688 12.6657 21.5688 8.1 21C7.23908 20.9009 6.39703 20.6777 5.6 20.3375C5.4569 20.2726 5.32587 20.1838 5.2125 20.075C3.4625 18.275 3.4375 15.8125 3.4375 12.7625Z" stroke="#7C6A46" stroke-width="2" stroke-linecap="round" stroke-linejoin="round"/>
<path d="M5.0001 23.45C4.99014 22.3869 5.19419 21.3327 5.6001 20.35" stroke="#7C6A46" stroke-width="2" stroke-linecap="round" stroke-linejoin="round"/>
<path d="M21.8625 21C22.7219 20.907 23.5636 20.6924 24.3625 20.3625C24.7813 21.3381 24.9982 22.3884 25 23.45" stroke="#7C6A46" stroke-width="2" stroke-linecap="round" stroke-linejoin="round"/>
<path d="M1.875 12.7625H3.4375M26.5625 12.7625H28.125" stroke="#7C6A46" stroke-width="2" stroke-linecap="round" stroke-linejoin="round"/>
<path d="M24.55 12.7625V8.45003C24.5112 7.97111 24.2936 7.52436 23.9404 7.19861C23.5872 6.87287 23.1243 6.69202 22.6438 6.69202C22.1633 6.69202 21.7004 6.87287 21.3472 7.19861C20.994 7.52436 20.7764 7.97111 20.7375 8.45003" stroke="#7C6A46" stroke-width="2" stroke-linecap="round" stroke-linejoin="round"/>
<path d="M13.4625 15.575C13.4625 15.9629 13.3085 16.3349 13.0342 16.6091C12.7599 16.8834 12.3879 17.0375 12 17.0375H9.07505C8.68717 17.0375 8.31518 16.8834 8.0409 16.6091C7.76663 16.3349 7.61255 15.9629 7.61255 15.575V12.15C7.61255 11.7621 7.76663 11.3901 8.0409 11.1159C8.31518 10.8416 8.68717 10.6875 9.07505 10.6875H12C12.3869 10.6908 12.757 10.8459 13.0306 11.1195C13.3042 11.393 13.4593 11.7631 13.4625 12.15V15.575Z" stroke="#7C6A46" stroke-width="2" stroke-linecap="round" stroke-linejoin="round"/>
</svg>
