<svg width="32" height="32" viewBox="0 0 32 32" fill="none" xmlns="http://www.w3.org/2000/svg">
<path d="M1 17.2601C1 16.4863 1 15.9991 1 15.9991C1 15.9991 1 4.85098 3.147 3.28909C7.42166 0.236969 24.559 0.236969 28.853 3.28909C31 4.85098 31 15.9991 31 15.9991C31 15.9991 31 16.4863 31 17.2601C31 20.2262 30.5745 27.4768 28.8723 28.7234C24.559 31.7612 7.42166 31.7612 3.12766 28.7091C1.42553 27.4625 1.05803 20.2979 1 17.2601Z" stroke="#7C6A46" stroke-width="2" stroke-linecap="round" stroke-linejoin="round"/>
<path d="M30.9807 17.26C30.9807 20.2262 30.5551 27.4768 28.853 28.7234C24.559 31.7612 7.42166 31.7612 3.12766 28.7091C1.42553 27.4768 1.05803 20.2262 1 17.2457C7.05416 15.0677 24.9265 15.0677 30.9807 17.26Z" stroke="#7C6A46" stroke-width="2" stroke-linecap="round" stroke-linejoin="round"/>
<path d="M13.8819 7.78854C13.8819 7.78854 13.8819 9.45073 13.3016 9.68C11.0199 10.1638 8.60077 10.1638 6.31904 9.68C5.73877 9.45073 5.73877 7.78854 5.73877 7.78854C5.73877 7.78854 5.81614 6.14068 6.31904 5.96873C8.5792 5.51034 10.9641 5.51034 13.2243 5.96873C13.8819 6.14068 13.8819 7.78854 13.8819 7.78854Z" stroke="#7C6A46" stroke-width="2" stroke-linecap="round" stroke-linejoin="round"/>
<path d="M26.1644 7.78848C26.1644 7.78848 26.1644 9.45067 25.5841 9.67994C23.3266 10.1528 20.9364 10.1528 18.6789 9.67994C18.0986 9.45067 18.0986 7.78848 18.0986 7.78848C18.0986 7.78848 18.0986 6.14062 18.6789 5.89703C20.9722 5.45151 23.3858 5.47627 25.6615 5.96867C26.1644 6.14062 26.1644 7.78848 26.1644 7.78848Z" stroke="#7C6A46" stroke-width="2" stroke-linecap="round" stroke-linejoin="round"/>
</svg>
