<svg width="30" height="30" viewBox="0 0 30 30" fill="none" xmlns="http://www.w3.org/2000/svg">
<g clip-path="url(#clip0_52_1915)">
<path d="M14.25 15.5V6.875H1.875V17.875C1.875 19.625 3.25 21 5 21H10.5C10.5 20.875 10.5 20.625 10.5 20.5C10.375 18.375 11.875 16.625 14.25 15.5Z" stroke="#7C6A46" stroke-width="2" stroke-miterlimit="10" stroke-linecap="round" stroke-linejoin="round"/>
<path d="M8 11.875L6.375 10.25L4.875 11.875V14.25H8.125V11.875H8Z" stroke="#7C6A46" stroke-width="2" stroke-miterlimit="10" stroke-linecap="round" stroke-linejoin="round"/>
<path d="M6.375 10.25V6.875" stroke="#7C6A46" stroke-width="2" stroke-miterlimit="10" stroke-linecap="round" stroke-linejoin="round"/>
<path d="M14.25 10.125H16.75C18 10.125 19 11.125 19 12.375V14.625C17.25 14.625 15.625 15 14.375 15.625C14.25 15.5 14.25 10.125 14.25 10.125Z" stroke="#7C6A46" stroke-width="2" stroke-miterlimit="10" stroke-linecap="round" stroke-linejoin="round"/>
<path d="M18.875 14.5C19 14.5 19.125 14.5 19.25 14.5C24.125 14.5 28.125 17.25 28.125 20.5C28.125 21.75 27.5 22.625 26.5 23.125H12C11.125 22.75 10.625 22 10.375 21.125C10.375 21 10.375 20.75 10.375 20.625C10.375 18.625 11.875 16.75 14.25 15.75C15.5 14.875 17.125 14.5 18.875 14.5Z" stroke="#7C6A46" stroke-width="2" stroke-miterlimit="10" stroke-linecap="round" stroke-linejoin="round"/>
<path d="M18.375 17.5C18.375 17.5 18.375 16 20 14.5" stroke="#7C6A46" stroke-width="2" stroke-miterlimit="10" stroke-linecap="round" stroke-linejoin="round"/>
<path d="M21.625 18C21.625 18 21.5 16.5 23.25 15.125" stroke="#7C6A46" stroke-width="2" stroke-miterlimit="10" stroke-linecap="round" stroke-linejoin="round"/>
<path d="M15.25 17.875C15.25 17.875 15.25 16.125 16.875 14.625" stroke="#7C6A46" stroke-width="2" stroke-miterlimit="10" stroke-linecap="round" stroke-linejoin="round"/>
</g>
<defs>
<clipPath id="clip0_52_1915">
<rect width="30" height="30" fill="white"/>
</clipPath>
</defs>
</svg>
