<svg width="30" height="30" viewBox="0 0 30 30" fill="none" xmlns="http://www.w3.org/2000/svg">
<path d="M22.9125 24.8125C24.7375 19.9625 25.5625 6.41251 23.1625 3.96251C20.4375 1.17501 9.5625 1.17501 6.8375 3.96251C4.4375 6.46251 5.2625 19.9625 7.0875 24.8125H22.9125Z" stroke="#7C6A46" stroke-width="2" stroke-linecap="round" stroke-linejoin="round"/>
<path d="M7.0874 28.125H23.1624" stroke="#7C6A46" stroke-width="2" stroke-linecap="round" stroke-linejoin="round"/>
<path d="M15.0001 24.8125C15.0001 24.8125 12.9501 24.8125 12.6626 24.1625C12.089 21.6236 12.089 18.9888 12.6626 16.45C12.9501 15.8 15.0001 15.8 15.0001 15.8C15.0001 15.8 17.0501 15.8 17.3376 16.45C17.9111 18.9888 17.9111 21.6236 17.3376 24.1625C17.0501 24.8 15.0001 24.8125 15.0001 24.8125Z" stroke="#7C6A46" stroke-width="2" stroke-linecap="round" stroke-linejoin="round"/>
<path d="M9.6499 8.28748V9.54998" stroke="#7C6A46" stroke-width="2" stroke-linecap="round" stroke-linejoin="round"/>
<path d="M20.3501 8.28748V9.54998" stroke="#7C6A46" stroke-width="2" stroke-linecap="round" stroke-linejoin="round"/>
<path d="M15 8.28748V9.54998" stroke="#7C6A46" stroke-width="2" stroke-linecap="round" stroke-linejoin="round"/>
</svg>
