<svg width="30" height="30" viewBox="0 0 30 30" fill="none" xmlns="http://www.w3.org/2000/svg">
<path d="M28.125 25.4H1.87502C1.87327 24.6873 2.01265 23.9812 2.28511 23.3226C2.55758 22.6639 2.95774 22.0658 3.46252 21.5625C3.46252 21.5625 8.58752 16.9875 11.15 16.075C13.6464 15.2255 16.3537 15.2255 18.85 16.075C21.35 16.9875 26.5375 21.5625 26.5375 21.5625C27.0423 22.0658 27.4425 22.6639 27.7149 23.3226C27.9874 23.9812 28.1268 24.6873 28.125 25.4Z" stroke="#7C6A46" stroke-width="2" stroke-linecap="round" stroke-linejoin="round"/>
<path d="M11.5625 8.02503C11.5625 7.34515 11.7641 6.68055 12.1418 6.11525C12.5195 5.54996 13.0564 5.10937 13.6845 4.84919C14.3126 4.58901 15.0038 4.52094 15.6706 4.65358C16.3374 4.78621 16.9499 5.1136 17.4307 5.59435C17.9114 6.07509 18.2388 6.68759 18.3714 7.3544C18.5041 8.02121 18.436 8.71238 18.1758 9.3405C17.9157 9.96862 17.4751 10.5055 16.9098 10.8832C16.3445 11.2609 15.6799 11.4625 15 11.4625" stroke="#7C6A46" stroke-width="2" stroke-linecap="round" stroke-linejoin="round"/>
<path d="M15 11.4625V15.4375" stroke="#7C6A46" stroke-width="2" stroke-linecap="round" stroke-linejoin="round"/>
</svg>
