<svg width="30" height="30" viewBox="0 0 30 30" fill="none" xmlns="http://www.w3.org/2000/svg">
<path d="M6.25006 11.9125C5.80369 12.277 5.2451 12.4761 4.66881 12.4761C4.09253 12.4761 3.53393 12.277 3.08756 11.9125L2.77506 11.6625C2.49415 11.4279 2.26818 11.1344 2.11312 10.8029C1.95805 10.4713 1.87769 10.1098 1.87769 9.74377C1.87769 9.37776 1.95805 9.0162 2.11312 8.68466C2.26818 8.35311 2.49415 8.05965 2.77506 7.82502C6.21819 5.00673 10.5514 3.50475 15.0001 3.58752C19.4652 3.50285 23.8123 5.02433 27.2501 7.87502C27.5267 8.10971 27.7489 8.40178 27.9013 8.73096C28.0537 9.06013 28.1326 9.41853 28.1326 9.78127C28.1326 10.144 28.0537 10.5024 27.9013 10.8316C27.7489 11.1608 27.5267 11.4528 27.2501 11.6875C27.1501 11.7875 27.0376 11.8625 26.9376 11.95C26.4912 12.3145 25.9326 12.5136 25.3563 12.5136C24.78 12.5136 24.2214 12.3145 23.7751 11.95C21.3023 9.95562 18.2008 8.90556 15.0251 8.98752C11.8454 8.88899 8.73464 9.92593 6.25006 11.9125Z" stroke="#7C6A46" stroke-width="2" stroke-linecap="round" stroke-linejoin="round"/>
<path d="M12.2 18.175C11.7807 18.42 11.297 18.5321 10.8127 18.4964C10.3284 18.4606 9.86633 18.2789 9.48751 17.975C9.18377 17.7194 8.94527 17.3952 8.79173 17.0291C8.63819 16.663 8.57404 16.2656 8.60458 15.8698C8.63512 15.474 8.75947 15.0912 8.96735 14.753C9.17523 14.4148 9.46066 14.131 9.80001 13.925C11.3904 13.0431 13.1815 12.5867 15 12.6C16.8228 12.584 18.6187 13.0405 20.2125 13.925C20.5511 14.1321 20.8354 14.4167 21.0422 14.7555C21.2489 15.0942 21.372 15.4773 21.4013 15.8731C21.4306 16.2688 21.3653 16.6659 21.2107 17.0314C21.0562 17.3969 20.8169 17.7203 20.5125 17.975L20.3625 18.1C20.0163 18.3884 19.5869 18.5585 19.1371 18.5854C18.6874 18.6124 18.2407 18.4949 17.8625 18.25C16.9922 17.7496 16.0039 17.4907 15 17.5C14.0245 17.4838 13.061 17.7161 12.2 18.175Z" stroke="#7C6A46" stroke-width="2" stroke-linecap="round" stroke-linejoin="round"/>
<path d="M15 26.4125C16.4152 26.4125 17.5625 25.2653 17.5625 23.85C17.5625 22.4348 16.4152 21.2875 15 21.2875C13.5848 21.2875 12.4375 22.4348 12.4375 23.85C12.4375 25.2653 13.5848 26.4125 15 26.4125Z" stroke="#7C6A46" stroke-width="2" stroke-linecap="round" stroke-linejoin="round"/>
</svg>
