<svg width="36" height="36" viewBox="0 0 36 36" fill="none" xmlns="http://www.w3.org/2000/svg">
<path d="M1.33337 1.3335H3.51031C3.92034 1.3335 4.12536 1.3335 4.29035 1.4089C4.43574 1.47534 4.55895 1.5822 4.64529 1.71674C4.74327 1.8694 4.77226 2.07236 4.83025 2.47827L5.61909 8.00016M5.61909 8.00016L7.37224 20.8858C7.59472 22.521 7.70596 23.3386 8.09687 23.9541C8.44134 24.4964 8.93518 24.9276 9.51896 25.1958C10.1815 25.5002 11.0066 25.5002 12.6569 25.5002H26.92C28.4909 25.5002 29.2764 25.5002 29.9183 25.2175C30.4843 24.9683 30.9698 24.5666 31.3205 24.0572C31.7183 23.4795 31.8652 22.7079 32.1592 21.1648L34.3652 9.58298C34.4687 9.03984 34.5204 8.76827 34.4454 8.556C34.3797 8.36978 34.2499 8.21297 34.0793 8.11353C33.8848 8.00016 33.6083 8.00016 33.0554 8.00016H5.61909ZM14.6667 33.0002C14.6667 33.9206 13.9205 34.6668 13 34.6668C12.0796 34.6668 11.3334 33.9206 11.3334 33.0002C11.3334 32.0797 12.0796 31.3335 13 31.3335C13.9205 31.3335 14.6667 32.0797 14.6667 33.0002ZM28 33.0002C28 33.9206 27.2538 34.6668 26.3334 34.6668C25.4129 34.6668 24.6667 33.9206 24.6667 33.0002C24.6667 32.0797 25.4129 31.3335 26.3334 31.3335C27.2538 31.3335 28 32.0797 28 33.0002Z" stroke="black" stroke-width="2" stroke-linecap="round" stroke-linejoin="round"/>
</svg>
