<svg width="56" height="31" viewBox="0 0 56 31" fill="none" xmlns="http://www.w3.org/2000/svg">
<path d="M47.7029 30.3059H56.0029L28.3363 0.561157L0.669739 30.3059H8.96971L28.3363 9.45153L47.7029 30.3059ZM14.503 6.54316V0.561157H6.20305V15.4335L14.503 6.54316Z" fill="#7C6A46"/>
<path d="M26.5158 15.738C26.5158 16.4463 26.3498 17.0937 26.0178 17.6802C25.6968 18.2557 25.2044 18.7205 24.5404 19.0746C23.8874 19.4177 23.0851 19.5892 22.1334 19.5892H20.5232V23.54H17.2696V11.837H22.1334C23.074 11.837 23.8708 12.003 24.5238 12.335C25.1878 12.667 25.6858 13.1263 26.0178 13.7128C26.3498 14.2994 26.5158 14.9744 26.5158 15.738ZM21.818 16.9996C22.7365 16.9996 23.1958 16.5791 23.1958 15.738C23.1958 14.8859 22.7365 14.4598 21.818 14.4598H20.5232V16.9996H21.818Z" fill="#7C6A46"/>
<path d="M39.2104 11.837L35.1767 23.54H31.0101L26.9597 11.837H30.4457L33.1017 20.2864L35.7411 11.837H39.2104Z" fill="#7C6A46"/>
</svg>
