<svg width="30" height="24" viewBox="0 0 30 24" fill="none" xmlns="http://www.w3.org/2000/svg">
<path d="M16.075 1.58752V4.68752C16.0782 4.99035 16.2009 5.27966 16.4162 5.49263C16.6315 5.7056 16.9221 5.82504 17.225 5.82502H20C20.3028 5.82504 20.5934 5.7056 20.8087 5.49263C21.024 5.27966 21.1467 4.99035 21.15 4.68752V1.58752" stroke="black" stroke-width="2" stroke-linecap="round" stroke-linejoin="round"/>
<path d="M18.6 5.82507V12.5751" stroke="black" stroke-width="2" stroke-linecap="round" stroke-linejoin="round"/>
<path d="M27.8501 8.56252C28.2705 7.04635 28.2225 5.43847 27.7125 3.95002C27.5425 3.30856 27.1766 2.73615 26.6657 2.31264C26.1548 1.88913 25.5244 1.63564 24.8625 1.58752V8.56252H27.8501Z" stroke="black" stroke-width="2" stroke-linecap="round" stroke-linejoin="round"/>
<path d="M24.8625 12.575V8.5625" stroke="black" stroke-width="2" stroke-linecap="round" stroke-linejoin="round"/>
<path d="M18.3625 22.4125C18.2301 20.5652 17.4028 18.8366 16.0472 17.5747C14.6916 16.3128 12.9083 15.6113 11.0563 15.6113C9.20421 15.6113 7.42091 16.3128 6.06531 17.5747C4.7097 18.8366 3.88243 20.5652 3.75 22.4125H18.3625Z" stroke="black" stroke-width="2" stroke-linecap="round" stroke-linejoin="round"/>
<path d="M20.2125 22.4125H1.875" stroke="black" stroke-width="2" stroke-linecap="round" stroke-linejoin="round"/>
<path d="M11.0375 15.0875V12.9375" stroke="black" stroke-width="2" stroke-linecap="round" stroke-linejoin="round"/>
</svg>
