<svg width="38" height="38" viewBox="0 0 38 38" fill="none" xmlns="http://www.w3.org/2000/svg">
<path d="M19 0.666626C9.06152 0.666626 0.666687 9.06146 0.666687 19C0.666687 28.9385 9.06152 37.3333 19 37.3333C28.9385 37.3333 37.3334 28.9385 37.3334 19C37.3334 9.06146 28.9385 0.666626 19 0.666626ZM19 9.83329C22.1662 9.83329 24.5 12.1653 24.5 15.3333C24.5 18.5013 22.1662 20.8333 19 20.8333C15.8357 20.8333 13.5 18.5013 13.5 15.3333C13.5 12.1653 15.8357 9.83329 19 9.83329ZM9.63902 27.7486C11.2835 25.3286 14.0262 23.7153 17.1667 23.7153H20.8334C23.9757 23.7153 26.7165 25.3286 28.361 27.7486C26.018 30.2566 22.6942 31.8333 19 31.8333C15.3059 31.8333 11.982 30.2566 9.63902 27.7486Z" fill="#C2C6CC"/>
</svg>
